<svg width="1024" height="1024" xmlns="http://www.w3.org/2000/svg">
 <title>weatherPro</title>
 <defs>
  <radialGradient id="svg_25" spreadMethod="pad">
   <stop stop-color="#FABA6F" offset="0.32031"/>
   <stop stop-color="#ff7f00" stop-opacity="0.99609" offset="0.90234"/>
  </radialGradient>
  <radialGradient id="svg_26" spreadMethod="pad">
   <stop stop-color="#ffffff" offset="0.16797"/>
   <stop stop-color="#e5ffff" stop-opacity="0.99219" offset="0.80859"/>
  </radialGradient>
  <linearGradient id="svg_32" x1="0" y1="0" x2="1" y2="0" spreadMethod="pad">
   <stop stop-color="#0000ff" offset="0.16797" stop-opacity="0.99609"/>
   <stop stop-color="#ffffff" stop-opacity="0.99219" offset="0.80859"/>
  </linearGradient>
 </defs>
 <g>
  <title>Layer 1</title>
  <rect id="svg_2" height="1025" width="1024" y="0" x="0" stroke="#000" fill="#007fff"/>
  <text fill="#ffffff" x="79.29399" y="874" id="svg_3" font-size="144" font-family="'Nunito'" text-anchor="start" xml:space="preserve" font-weight="bold" font-style="normal" stroke="#000" stroke-width="0">Weather Pro</text>
  <ellipse fill="url(#svg_25)" stroke-width="0" cx="276.49875" cy="295.50025" id="svg_4" rx="184.99983" ry="186.99931" stroke="#000"/>
  <path fill="url(#svg_32)" stroke-width="0" d="m822.64197,132.9162l-69.52277,90.64948l28.72656,10.69731l-87.73682,77.66222l28.72662,12.9873l-108.28119,130.05054l183.76031,-99.65146l-35.15326,-13.87161l114.27423,-63.8251l-40.97906,-19.73859l120.53619,-66.96274l-134.35083,-57.99733l0,-0.00002z" id="svg_27" transform="rotate(-17.5403 785.774 293.939)" stroke="#000"/>
  <path fill="url(#svg_26)" stroke-width="0" d="m701.83081,309.72659c-1.87274,-70.24742 -63.49158,-126.67464 -139.42151,-126.72998c-50.70578,0.05534 -95.06738,25.29305 -119.35812,62.98364c-11.3848,-5.84506 -24.65073,-9.28734 -38.62003,-9.28734c-43.88727,0.05536 -79.44843,32.33565 -81.09241,72.81636c-46.01361,14.03769 -79.34192,54.13101 -79.34192,101.76495c0,59.26425 51.64053,107.39221 115.36932,107.39221l0,-0.05536l305.2597,0c63.61426,0 115.37732,-48.12363 115.37732,-107.39221c-0.12256,-47.1951 -32.86218,-87.12653 -78.17236,-101.49228zm-37.31946,173.10266l-305.1452,0c-42.48859,-0.05133 329.52673,25.02417 329.40411,-14.46844c0,-35.50903 -280.34009,-153.23407 -243.83832,-158.86172c5.04623,-0.76266 -64.33774,36.43222 -85.45129,23.93185c-21.11359,-12.50037 54.51532,54.88077 73.35382,64.98215c18.83826,10.10138 21.50726,-7.30325 30.2944,-13.93475c8.78708,-6.63147 -38.19479,31.11414 -25.74677,31.11414c12.44806,0 151.134,-129.63748 159.11642,-121.5517c4.45746,4.58817 -164.84161,-10.14478 -142.88861,-2.88889c-158.16736,212.47308 253.38983,191.62604 210.90143,191.67737zm-229.44263,127.55234c-15.02435,0 -27.22705,-11.36194 -27.22705,-25.34851c0,-14.03766 12.2027,-25.34454 27.22705,-25.34454c15.02435,0 27.22693,11.30688 27.22693,25.34454c0,13.98657 -12.20258,25.34851 -27.22693,25.34851zm144.23779,0c-15.02454,0 -27.22717,-11.36194 -27.22717,-25.34851c0,-14.03766 12.20264,-25.34454 27.22717,-25.34454c15.02301,0 27.22571,11.30688 27.22571,25.34454c0,13.98657 -12.2027,25.34851 -27.22571,25.34851zm-221.10992,90.62042c-15.02435,-0.0553 -27.23523,-11.41748 -27.23523,-25.3996s12.21088,-25.29321 27.23523,-25.34467c15.01614,0.05145 27.22699,11.35834 27.22699,25.34467c0,14.03754 -12.21085,25.3996 -27.22699,25.3996zm144.11761,0c-15.01617,-0.0553 -27.22696,-11.41748 -27.22696,-25.3996s12.21078,-25.29321 27.22696,-25.34467c15.02429,0.05145 27.23254,11.35834 27.23254,25.34467c0,14.03754 -12.08545,25.3996 -27.23254,25.3996zm144.24487,0c-15.02454,-0.0553 -27.23535,-11.36206 -27.23535,-25.3443c0,-14.04163 12.21082,-25.39996 27.23535,-25.39996c15.01611,0 27.22693,11.35834 27.22693,25.39996c0,13.98224 -12.21082,25.3443 -27.22693,25.3443z" id="svg_21" opacity="0.8" stroke="#000"/>
 </g>
</svg>